<svg width="512" height="512" viewBox="0 0 512 512" xmlns="http://www.w3.org/2000/svg"><defs><linearGradient id="g" x1="72" y1="105" x2="430" y2="414"><stop stop-color="#16D7FF"/><stop offset="1" stop-color="#30F06E"/></linearGradient></defs><rect width="512" height="512" rx="116" fill="#070B16"/><path d="M91 152h283c35 0 64 29 64 64v136c0 35-29 64-64 64H91c-35 0-64-29-64-64V216c0-35 29-64 64-64Z" fill="url(#g)"/><path d="M310 248h112v80H310c-22 0-40-18-40-40s18-40 40-40Z" fill="#07101d" fill-opacity=".7"/><path d="M130 288l53 53 112-128" stroke="#07101D" stroke-width="35" stroke-linecap="round" stroke-linejoin="round" opacity=".35"/><path d="M130 288l53 53 112-128" stroke="white" stroke-width="24" stroke-linecap="round" stroke-linejoin="round"/></svg>