<svg width="512" height="512" viewBox="0 0 512 512" xmlns="http://www.w3.org/2000/svg"><defs><linearGradient id="g" x1="70" y1="90" x2="430" y2="420"><stop stop-color="#7C3DFF"/><stop offset=".48" stop-color="#18D9FF"/><stop offset="1" stop-color="#32F074"/></linearGradient></defs><rect width="512" height="512" rx="116" fill="#070B16"/><path d="M115 160h260c32 0 58 26 58 58v134c0 32-26 58-58 58H115c-32 0-58-26-58-58V218c0-32 26-58 58-58Z" fill="url(#g)"/><path d="M276 255h150v91H276c-25 0-45-20-45-45s20-46 45-46Z" fill="#07101d" fill-opacity=".65"/><circle cx="294" cy="301" r="14" fill="#fff"/><path d="M179 250c-31 0-56 25-56 56m56-93c-51 0-93 42-93 93" stroke="#fff" stroke-width="24" stroke-linecap="round" fill="none"/></svg>