<svg width="512" height="512" viewBox="0 0 512 512" xmlns="http://www.w3.org/2000/svg"><defs><linearGradient id="g" x1="81" y1="93" x2="409" y2="419"><stop stop-color="#7C3DFF"/><stop offset=".5" stop-color="#13D5FF"/><stop offset="1" stop-color="#2FF071"/></linearGradient></defs><rect width="512" height="512" rx="116" fill="#070B16"/><path d="M113 175h270c29 0 52 23 52 52v126c0 29-23 52-52 52H113c-29 0-52-23-52-52V227c0-29 23-52 52-52Z" fill="url(#g)"/><path d="M110 140h205c20 0 36 16 36 36H96c0-20 16-36 36-36Z" fill="#32F074"/><circle cx="198" cy="286" r="35" fill="#fff"/><circle cx="198" cy="286" r="72" stroke="#fff" stroke-width="20" opacity=".78"/><circle cx="198" cy="286" r="112" stroke="#fff" stroke-width="18" opacity=".35"/><path d="M342 255h88v76h-88c-21 0-38-17-38-38s17-38 38-38Z" fill="#07101d" fill-opacity=".65"/></svg>