<svg width="512" height="512" viewBox="0 0 512 512" xmlns="http://www.w3.org/2000/svg"><defs><linearGradient id="g" x1="74" y1="85" x2="430" y2="425"><stop stop-color="#8854FF"/><stop offset=".52" stop-color="#18D9FF"/><stop offset="1" stop-color="#31F06F"/></linearGradient></defs><rect width="512" height="512" rx="116" fill="#070B16"/><path d="M108 166h283c33 0 60 27 60 60v130c0 33-27 60-60 60H108c-33 0-60-27-60-60V226c0-33 27-60 60-60Z" fill="url(#g)"/><path d="M332 252h104v80H332c-22 0-40-18-40-40s18-40 40-40Z" fill="#07101d" fill-opacity=".68"/><path d="M111 294h62c22 0 40-18 40-40v-8c0-22 18-40 40-40h60" stroke="#fff" stroke-width="24" stroke-linecap="round" fill="none"/><circle cx="111" cy="294" r="18" fill="#07101d"/><circle cx="313" cy="206" r="18" fill="#07101d"/></svg>